<svg xmlns="http://www.w3.org/2000/svg" xmlns:xlink="http://www.w3.org/1999/xlink" width="3024" zoomAndPan="magnify" viewBox="0 0 2268 5669.24987" height="7559" preserveAspectRatio="xMidYMid meet" version="1.0"><defs><clipPath id="cec5cc6304"><path d="M 0.148438 212 L 2267.847656 212 L 2267.847656 5668.5 L 0.148438 5668.5 Z M 0.148438 212 " clip-rule="nonzero"/></clipPath><clipPath id="e66da61fa2"><path d="M 0.148438 0.570312 L 2267.175781 0.570312 L 2267.175781 1405.121094 L 0.148438 1405.121094 Z M 0.148438 0.570312 " clip-rule="nonzero"/></clipPath><clipPath id="b207f15b80"><path d="M 0.148438 349 L 2267.175781 349 L 2267.175781 1143 L 0.148438 1143 Z M 0.148438 349 " clip-rule="nonzero"/></clipPath><clipPath id="6eb2eb8d57"><path d="M 0.148438 1 L 1298 1 L 1298 843 L 0.148438 843 Z M 0.148438 1 " clip-rule="nonzero"/></clipPath><clipPath id="0f277ad937"><path d="M 1297 882 L 2267.175781 882 L 2267.175781 1405 L 1297 1405 Z M 1297 882 " clip-rule="nonzero"/></clipPath><clipPath id="dc34089508"><rect x="0" width="2268" y="0" height="1406"/></clipPath><clipPath id="8ee651e6fb"><path d="M 0.148438 1918 L 2267.847656 1918 L 2267.847656 3226 L 0.148438 3226 Z M 0.148438 1918 " clip-rule="nonzero"/></clipPath><clipPath id="85ffeb935b"><path d="M 427 1344 L 2267.847656 1344 L 2267.847656 2732 L 427 2732 Z M 427 1344 " clip-rule="nonzero"/></clipPath><clipPath id="e6dd94dc5d"><path d="M 0.148438 2797 L 428 2797 L 428 3657.988281 L 0.148438 3657.988281 Z M 0.148438 2797 " clip-rule="nonzero"/></clipPath><clipPath id="0895ff2b92"><path d="M 0.148438 3694.253906 L 2267.847656 3694.253906 L 2267.847656 5456.5 L 0.148438 5456.5 Z M 0.148438 3694.253906 " clip-rule="nonzero"/></clipPath><clipPath id="b9d5dc2707"><path d="M 0.148438 575 L 2267.847656 575 L 2267.847656 1762.5 L 0.148438 1762.5 Z M 0.148438 575 " clip-rule="nonzero"/></clipPath><clipPath id="8e01725860"><path d="M 0.148438 1 L 1824 1 L 1824 1389 L 0.148438 1389 Z M 0.148438 1 " clip-rule="nonzero"/></clipPath><clipPath id="e4682d9b5d"><path d="M 1823 1454 L 2267.847656 1454 L 2267.847656 1762.5 L 1823 1762.5 Z M 1823 1454 " clip-rule="nonzero"/></clipPath><clipPath id="33db21c593"><rect x="0" width="2268" y="0" height="1763"/></clipPath><clipPath id="63083e7530"><rect x="0" width="2268" y="0" height="5457"/></clipPath></defs><g clip-path="url(#cec5cc6304)"><g transform="matrix(1, 0, 0, 1, 0, 212)"><g clip-path="url(#63083e7530)"><g clip-path="url(#e66da61fa2)"><g><g clip-path="url(#dc34089508)"><g clip-path="url(#b207f15b80)"><path fill="#0a588e" d="M -230.363281 349.535156 L -230.363281 365.230469 L -215.199219 395.015625 L -209.578125 406.058594 L -206.757812 411.582031 L -203.734375 416.980469 L -191.519531 438.570312 C -183.277344 452.914062 -175.558594 467.554688 -166.539062 481.398438 L -153.328125 502.464844 L -146.683594 512.933594 C -144.460938 516.433594 -142.359375 520.007812 -139.914062 523.355469 L -111.535156 564.234375 C -72.398438 618.378906 -28.519531 668.355469 20.101562 714.164062 C 25.996094 720.113281 32.59375 725.410156 38.738281 730.957031 L 57.671875 747.449219 C 64.089844 752.847656 70.785156 757.894531 77.355469 763.117188 L 87.347656 770.890625 C 90.644531 773.386719 93.890625 776.136719 97.335938 778.511719 L 117.871094 793.101562 C 121.34375 795.601562 124.691406 798.101562 128.210938 800.324219 L 138.828125 807.121094 C 145.921875 811.644531 152.964844 816.242188 160.109375 820.714844 L 181.792969 833.460938 C 211.261719 850.128906 241.65625 864.886719 272.976562 877.734375 C 304.300781 890.582031 336.300781 901.421875 368.984375 910.25 C 377.175781 912.347656 385.347656 914.644531 393.589844 916.59375 L 418.394531 922.191406 L 443.371094 926.964844 C 451.691406 928.566406 460.082031 929.6875 468.351562 931.0625 C 501.859375 936.015625 535.53125 939.273438 569.367188 940.832031 C 636.933594 944.15625 704.402344 940.832031 771.121094 934.039062 C 837.839844 927.242188 903.808594 916.695312 969.179688 905.027344 C 1099.820312 881.488281 1228.210938 852.75 1356.203125 834.410156 C 1388.203125 829.835938 1420.125 825.914062 1452 822.839844 C 1483.871094 819.765625 1515.671875 817.839844 1547.320312 816.816406 C 1578.96875 815.792969 1610.492188 816.015625 1641.765625 817.667969 C 1673.039062 819.316406 1704.039062 822.414062 1734.660156 827.039062 C 1757.4375 830.332031 1780.027344 834.613281 1802.425781 839.886719 C 1824.828125 845.15625 1846.953125 851.398438 1868.808594 858.605469 C 1890.664062 865.816406 1912.164062 873.964844 1933.304688 883.054688 C 1954.445312 892.148438 1975.152344 902.144531 1995.417969 913.046875 C 2002.113281 916.746094 2008.855469 920.292969 2015.402344 924.066406 L 2035.234375 935.910156 C 2041.855469 939.710938 2048.199219 943.984375 2054.617188 948.15625 L 2064.210938 954.402344 C 2067.40625 956.453125 2070.628906 958.527344 2073.703125 960.800781 L 2092.410156 974.019531 C 2095.558594 976.167969 2098.554688 978.542969 2101.605469 980.867188 L 2110.695312 987.835938 L 2119.8125 994.785156 C 2122.8125 997.15625 2125.734375 999.632812 2128.679688 1002.054688 C 2134.550781 1007.054688 2140.546875 1011.652344 2146.316406 1016.671875 C 2169.546875 1036.664062 2191.628906 1057.828125 2212.835938 1079.96875 C 2231.96875 1099.960938 2250.203125 1120.78125 2267.539062 1142.4375 L 2267.539062 940.234375 C 2255.882812 930.238281 2244.066406 920.585938 2232.09375 911.273438 C 2225.148438 905.800781 2217.980469 900.652344 2210.9375 895.355469 C 2207.390625 892.855469 2203.894531 890.058594 2200.296875 887.484375 L 2189.40625 879.988281 L 2178.539062 872.492188 C 2174.890625 869.992188 2171.296875 867.492188 2167.546875 864.996094 L 2145.21875 850.75 C 2141.519531 848.253906 2137.722656 846.101562 2133.902344 843.878906 L 2122.460938 837.183594 C 2114.84375 832.734375 2107.300781 828.1875 2099.429688 824.140625 L 2076.074219 811.644531 C 2068.207031 807.648438 2060.214844 803.875 2052.296875 800 C 2028.460938 788.613281 2004.179688 778.28125 1979.449219 769.011719 C 1954.714844 759.738281 1929.628906 751.558594 1904.183594 744.472656 C 1878.742188 737.386719 1853.039062 731.417969 1827.074219 726.570312 C 1801.109375 721.722656 1774.988281 718.011719 1748.699219 715.441406 C 1714.003906 711.890625 1679.285156 710.140625 1644.738281 709.917969 C 1610.191406 709.691406 1575.84375 711.242188 1541.773438 713.867188 C 1507.703125 716.488281 1473.882812 720.3125 1440.382812 725.109375 C 1406.886719 729.90625 1373.691406 735.65625 1340.742188 741.976562 C 1208.953125 767.339844 1081.5625 802.347656 954.21875 831.558594 C 890.570312 846.054688 826.824219 859.398438 763.003906 869.042969 C 699.183594 878.6875 634.859375 884.835938 570.664062 884.734375 C 538.628906 884.769531 506.671875 883.207031 474.796875 880.039062 C 466.878906 879.113281 458.882812 878.414062 450.992188 877.289062 L 427.234375 873.914062 L 403.628906 869.742188 C 395.761719 868.292969 387.992188 866.496094 380.148438 864.871094 C 348.824219 857.929688 318.050781 849.054688 287.839844 838.25 C 257.625 827.449219 228.203125 814.796875 199.578125 800.300781 L 178.121094 789.230469 L 157.1875 777.210938 L 146.722656 771.1875 C 143.222656 769.164062 139.902344 766.890625 136.503906 764.742188 L 116.121094 751.671875 C 112.675781 749.574219 109.425781 747.175781 106.128906 744.824219 L 96.289062 737.804688 C 89.742188 733.054688 83.023438 728.507812 76.605469 723.609375 L 57.570312 708.617188 C 51.25 703.621094 44.730469 698.621094 38.761719 693.226562 C -10.816406 650.746094 -55.953125 603.976562 -96.648438 552.917969 L -126.5 514.007812 C -128.996094 510.8125 -131.296875 507.386719 -133.644531 504.015625 L -140.664062 494.019531 L -154.675781 473.851562 C -164.316406 460.585938 -172.636719 446.367188 -181.476562 432.621094 L -194.59375 411.808594 L -197.839844 406.585938 L -200.910156 401.238281 L -207.007812 390.542969 Z M -230.363281 349.535156 " fill-opacity="1" fill-rule="nonzero"/></g><g clip-path="url(#6eb2eb8d57)"><path fill="#76d3f6" d="M -230.363281 1.148438 L -230.363281 252.007812 C -189.019531 324.410156 -142.28125 393.144531 -90.15625 458.210938 C -63.246094 491.71875 -34.65625 523.722656 -4.375 554.214844 C 25.882812 584.898438 57.867188 613.667969 91.566406 640.523438 C 125.5 667.289062 161.078125 691.644531 198.304688 713.589844 L 226.554688 729.40625 C 236.144531 734.40625 245.886719 739.078125 255.53125 743.925781 C 265.171875 748.773438 275.039062 752.972656 284.828125 757.371094 C 294.621094 761.769531 304.5625 765.742188 314.480469 769.714844 C 354.148438 785.417969 394.597656 798.742188 435.828125 809.695312 C 446.070312 812.492188 456.410156 814.867188 466.703125 817.492188 C 476.992188 820.117188 487.359375 822.289062 497.75 824.339844 C 518.484375 828.738281 539.367188 832.382812 560.398438 835.535156 C 571.015625 837.082031 581.28125 838.480469 592.445312 839.582031 L 608.382812 840.78125 L 616.328125 841.378906 L 624.292969 841.753906 L 640.230469 842.503906 L 656.167969 842.828125 C 661.464844 843.003906 666.785156 842.828125 672.105469 842.828125 C 677.425781 842.828125 682.722656 842.828125 688.015625 842.628906 C 709.25 842.15625 730.480469 840.730469 751.4375 838.804688 C 772.394531 836.882812 793.351562 834.035156 814.109375 830.933594 C 855.601562 824.5625 896.542969 816.566406 937.332031 808.445312 C 957.765625 804.421875 978.246094 800.175781 998.605469 795.625 C 1018.964844 791.078125 1039.246094 786.105469 1059.453125 780.933594 C 1140.171875 760.109375 1219.390625 734.613281 1297.105469 704.445312 C 1218.078125 730.101562 1137.820312 751.035156 1056.332031 767.238281 C 1036 771.203125 1015.632812 774.917969 995.234375 778.386719 C 974.800781 781.757812 954.394531 784.808594 933.835938 787.65625 C 892.695312 793.351562 851.628906 799 810.664062 802.921875 C 790.179688 804.796875 769.722656 806.347656 749.289062 807.144531 C 728.855469 807.945312 708.472656 808.097656 688.140625 807.394531 C 683.144531 807.394531 678 806.945312 672.929688 806.722656 C 667.859375 806.496094 662.761719 806.246094 657.71875 805.796875 L 642.53125 804.621094 L 627.367188 803.046875 L 619.875 802.273438 L 612.378906 801.273438 L 597.390625 799.273438 C 592.796875 798.550781 587.675781 797.652344 582.78125 796.777344 C 577.882812 795.902344 572.789062 794.925781 567.792969 793.851562 C 527.96875 785.609375 488.730469 775.148438 450.085938 762.472656 C 411.441406 749.796875 373.632812 734.984375 336.660156 718.039062 C 327.519531 713.765625 318.351562 709.59375 309.460938 704.871094 C 300.566406 700.148438 291.425781 695.898438 282.855469 690.800781 C 274.289062 685.703125 265.371094 681.007812 256.878906 675.808594 L 231.601562 659.714844 C 198.320312 637.457031 166.679688 613.070312 136.679688 586.550781 C 106.734375 559.816406 78.476562 531.40625 51.902344 501.316406 C 25.191406 471.207031 0.144531 439.769531 -23.234375 407.007812 C -70.148438 341.148438 -111.488281 271.957031 -147.257812 199.433594 C -165.242188 163.265625 -181.894531 126.507812 -197.214844 89.160156 C -209.078125 60.074219 -220.371094 30.660156 -230.363281 1.148438 Z M -230.363281 1.148438 " fill-opacity="1" fill-rule="nonzero"/></g><g clip-path="url(#0f277ad937)"><path fill="#76d3f6" d="M 1297.105469 924.417969 C 1348.160156 912.460938 1399.875 905.238281 1452.25 902.75 C 1504.238281 900.171875 1556.054688 902.152344 1607.695312 908.699219 C 1658.945312 915.1875 1709.179688 926.292969 1758.390625 942.007812 C 1782.773438 949.980469 1806.851562 958.726562 1830.355469 968.820312 C 1836.277344 971.167969 1842.046875 974.019531 1847.84375 976.59375 C 1853.636719 979.164062 1859.507812 981.765625 1865.203125 984.6875 L 1882.363281 993.132812 C 1888.035156 996.03125 1893.605469 999.132812 1899.25 1002.105469 C 1944.035156 1026.246094 1986.207031 1054.316406 2025.765625 1086.316406 C 2045.351562 1102.285156 2064.160156 1119.125 2082.296875 1136.640625 C 2100.429688 1154.160156 2117.441406 1172.699219 2133.800781 1191.765625 C 2150.164062 1210.832031 2165.675781 1230.699219 2180.113281 1251.136719 C 2194.550781 1271.578125 2208.414062 1292.570312 2221.128906 1314.082031 C 2233.84375 1335.597656 2245.632812 1357.539062 2256.300781 1380.027344 C 2260.195312 1388.15625 2263.941406 1396.328125 2267.539062 1404.542969 L 2267.539062 1230.097656 C 2259.960938 1220.320312 2252.203125 1210.699219 2244.257812 1201.238281 C 2226.640625 1180.214844 2208.132812 1160.054688 2188.730469 1140.765625 C 2169.320312 1121.5 2149.164062 1103.007812 2128.207031 1085.542969 C 2107.25 1068.074219 2085.46875 1051.683594 2063.0625 1036.238281 C 2018.226562 1005.480469 1970.933594 979.144531 1921.179688 957.226562 C 1914.984375 954.527344 1908.839844 951.753906 1902.621094 949.179688 L 1883.8125 941.683594 C 1877.59375 939.183594 1871.324219 936.910156 1864.878906 934.613281 C 1858.433594 932.3125 1852.261719 929.914062 1845.84375 927.914062 C 1820.339844 919.292969 1794.410156 912.148438 1768.410156 905.875 C 1716.246094 893.664062 1663.40625 886.3125 1609.890625 883.8125 C 1556.796875 881.300781 1503.890625 883.464844 1451.175781 890.308594 C 1398.777344 896.976562 1347.421875 908.347656 1297.105469 924.417969 Z M 1297.105469 924.417969 " fill-opacity="1" fill-rule="nonzero"/></g></g></g></g><g clip-path="url(#8ee651e6fb)"><path fill="#0a588e" d="M 2945.710938 1918.210938 L 2945.710938 1944.078125 L 2920.710938 1993.167969 L 2911.445312 2011.371094 L 2906.792969 2020.472656 L 2901.808594 2029.371094 L 2881.667969 2064.953125 C 2868.078125 2088.59375 2855.351562 2112.730469 2840.484375 2135.542969 L 2818.699219 2170.265625 L 2807.742188 2187.519531 C 2804.078125 2193.285156 2800.617188 2199.175781 2796.582031 2204.695312 L 2749.796875 2272.074219 C 2717.605469 2316.589844 2683.382812 2359.488281 2647.128906 2400.765625 C 2610.871094 2442.042969 2572.75 2481.515625 2532.757812 2519.183594 C 2523.035156 2528.984375 2512.164062 2537.714844 2502.03125 2546.859375 L 2470.816406 2574.039062 C 2460.230469 2582.9375 2449.191406 2591.253906 2438.363281 2599.863281 L 2421.886719 2612.671875 C 2416.453125 2616.789062 2411.097656 2621.320312 2405.414062 2625.234375 L 2371.5625 2649.285156 C 2365.835938 2653.402344 2360.316406 2657.523438 2354.511719 2661.1875 L 2337.007812 2672.390625 C 2325.3125 2679.84375 2313.695312 2687.421875 2301.917969 2694.792969 L 2266.171875 2715.796875 C 2217.582031 2743.269531 2167.46875 2767.59375 2115.828125 2788.769531 C 2064.183594 2809.949219 2011.421875 2827.8125 1957.535156 2842.359375 C 1944.027344 2845.820312 1930.558594 2849.609375 1916.96875 2852.820312 L 1876.074219 2862.046875 L 1834.890625 2869.910156 C 1821.175781 2872.546875 1807.335938 2874.402344 1793.703125 2876.667969 C 1738.457031 2884.832031 1682.941406 2890.199219 1627.15625 2892.769531 C 1515.753906 2898.246094 1404.511719 2892.769531 1294.511719 2881.566406 C 1184.507812 2870.363281 1075.738281 2852.984375 967.960938 2833.75 C 752.566406 2794.957031 540.878906 2747.59375 329.851562 2717.363281 C 277.09375 2709.828125 224.460938 2703.359375 171.910156 2698.292969 C 119.359375 2693.230469 66.929688 2690.058594 14.75 2688.371094 C -37.429688 2686.679688 -89.402344 2687.050781 -140.964844 2689.769531 C -192.527344 2692.488281 -243.640625 2697.59375 -294.128906 2705.214844 C -331.683594 2710.644531 -368.925781 2717.703125 -405.855469 2726.390625 C -442.789062 2735.078125 -479.273438 2745.363281 -515.308594 2757.246094 C -551.339844 2769.125 -586.785156 2782.558594 -621.644531 2797.542969 C -656.5 2812.523438 -690.636719 2829 -724.054688 2846.972656 C -735.089844 2853.066406 -746.210938 2858.914062 -757 2865.132812 L -789.699219 2884.65625 C -800.613281 2890.917969 -811.074219 2897.957031 -821.660156 2904.835938 L -837.476562 2915.132812 C -842.746094 2918.511719 -848.058594 2921.929688 -853.125 2925.675781 L -883.972656 2947.464844 C -889.160156 2951.003906 -894.101562 2954.917969 -899.128906 2958.746094 L -914.117188 2970.238281 L -929.152344 2981.6875 C -934.09375 2985.601562 -938.910156 2989.675781 -943.769531 2993.671875 C -953.449219 3001.910156 -963.332031 3009.488281 -972.847656 3017.765625 C -1011.148438 3050.714844 -1047.554688 3085.597656 -1082.519531 3122.085938 C -1114.066406 3155.035156 -1144.132812 3189.355469 -1172.714844 3225.050781 L -1172.714844 2891.78125 C -1153.496094 2875.308594 -1134.015625 2859.394531 -1114.273438 2844.046875 C -1102.824219 2835.027344 -1091.003906 2826.542969 -1079.390625 2817.8125 C -1073.542969 2813.695312 -1067.777344 2809.082031 -1061.847656 2804.839844 L -1043.890625 2792.484375 L -1025.976562 2780.128906 C -1019.960938 2776.011719 -1014.03125 2771.890625 -1007.855469 2767.773438 L -971.035156 2744.296875 C -964.941406 2740.179688 -958.679688 2736.636719 -952.378906 2732.972656 L -933.515625 2721.933594 C -920.957031 2714.605469 -908.519531 2707.109375 -895.542969 2700.4375 L -857.039062 2679.84375 C -844.0625 2673.253906 -830.886719 2667.035156 -817.828125 2660.652344 C -778.535156 2641.882812 -738.5 2624.859375 -697.722656 2609.578125 C -656.945312 2594.292969 -615.582031 2580.8125 -573.632812 2569.132812 C -531.683594 2557.453125 -489.304688 2547.617188 -446.496094 2539.628906 C -403.6875 2531.636719 -360.617188 2525.523438 -317.277344 2521.28125 C -260.070312 2515.433594 -202.824219 2512.550781 -145.867188 2512.179688 C -88.910156 2511.808594 -32.28125 2514.363281 23.894531 2518.6875 C 80.070312 2523.011719 135.832031 2529.3125 191.0625 2537.222656 C 246.289062 2545.128906 301.023438 2554.601562 355.34375 2565.019531 C 572.632812 2606.824219 782.671875 2664.523438 992.628906 2712.667969 C 1097.566406 2736.554688 1202.667969 2758.546875 1307.894531 2774.445312 C 1413.121094 2790.34375 1519.171875 2800.472656 1625.015625 2800.308594 C 1677.832031 2800.367188 1730.519531 2797.789062 1783.078125 2792.566406 C 1796.132812 2791.042969 1809.3125 2789.890625 1822.328125 2788.035156 L 1861.492188 2782.476562 L 1900.414062 2775.597656 C 1913.386719 2773.210938 1926.195312 2770.246094 1939.125 2767.566406 C 1990.777344 2756.125 2041.507812 2741.503906 2091.324219 2723.695312 C 2141.140625 2705.890625 2189.648438 2685.039062 2236.847656 2661.144531 L 2272.226562 2642.902344 L 2306.738281 2623.089844 L 2323.992188 2613.164062 C 2329.757812 2609.828125 2335.238281 2606.082031 2340.835938 2602.539062 L 2374.445312 2581 C 2380.128906 2577.539062 2385.480469 2573.585938 2390.917969 2569.714844 L 2407.144531 2558.144531 C 2417.933594 2550.316406 2429.011719 2542.820312 2439.597656 2534.75 L 2470.980469 2510.039062 C 2481.398438 2501.800781 2492.148438 2493.566406 2501.992188 2484.667969 C 2542.769531 2449.742188 2581.808594 2412.960938 2619.101562 2374.332031 C 2656.394531 2335.703125 2691.777344 2295.398438 2725.25 2253.414062 L 2774.464844 2189.292969 C 2778.585938 2184.019531 2782.375 2178.378906 2786.246094 2172.816406 L 2797.816406 2156.34375 L 2820.921875 2123.105469 C 2836.820312 2101.238281 2850.535156 2077.804688 2865.113281 2055.152344 L 2886.734375 2020.84375 L 2892.089844 2012.238281 L 2897.152344 2003.425781 L 2907.203125 1985.796875 Z M 2945.710938 1918.210938 " fill-opacity="1" fill-rule="nonzero"/></g><g clip-path="url(#85ffeb935b)"><path fill="#76d3f6" d="M 2945.710938 1344.011719 L 2945.710938 1757.46875 C 2877.546875 1876.800781 2800.488281 1990.085938 2714.542969 2097.324219 C 2670.179688 2152.554688 2623.039062 2205.296875 2573.117188 2255.558594 C 2523.222656 2306.128906 2470.492188 2353.546875 2414.929688 2397.808594 C 2358.984375 2441.921875 2300.324219 2482.0625 2238.949219 2518.234375 L 2192.367188 2544.304688 C 2176.554688 2552.542969 2160.492188 2560.242188 2144.59375 2568.234375 C 2128.699219 2576.222656 2112.429688 2583.140625 2096.285156 2590.390625 C 2080.140625 2597.640625 2063.75 2604.1875 2047.398438 2610.734375 C 1982 2636.617188 1915.308594 2658.582031 1847.328125 2676.632812 C 1830.441406 2681.242188 1813.390625 2685.15625 1796.421875 2689.480469 C 1779.457031 2693.804688 1762.363281 2697.386719 1745.230469 2700.765625 C 1711.046875 2708.015625 1676.617188 2714.027344 1641.941406 2719.214844 C 1624.4375 2721.769531 1607.511719 2724.074219 1589.101562 2725.886719 L 1562.824219 2727.863281 L 1549.730469 2728.851562 L 1536.589844 2729.472656 L 1510.316406 2730.707031 L 1484.039062 2731.242188 C 1475.308594 2731.53125 1466.539062 2731.242188 1457.765625 2731.242188 C 1448.992188 2731.242188 1440.261719 2731.242188 1431.53125 2730.914062 C 1396.523438 2730.128906 1361.515625 2727.78125 1326.964844 2724.609375 C 1292.410156 2721.441406 1257.855469 2716.746094 1223.632812 2711.636719 C 1155.226562 2701.136719 1087.722656 2687.957031 1020.46875 2674.570312 C 986.78125 2667.941406 953.011719 2660.9375 919.445312 2653.445312 C 885.878906 2645.949219 852.4375 2637.753906 819.121094 2629.226562 C 686.035156 2594.902344 555.425781 2552.878906 427.292969 2503.160156 C 557.585938 2545.449219 689.914062 2579.949219 824.269531 2606.65625 C 857.792969 2613.191406 891.371094 2619.316406 925.003906 2625.027344 C 958.695312 2630.585938 992.339844 2635.609375 1026.234375 2640.304688 C 1094.066406 2649.695312 1161.773438 2659.003906 1229.316406 2665.46875 C 1263.085938 2668.558594 1296.816406 2671.113281 1330.503906 2672.429688 C 1364.195312 2673.75 1397.800781 2673.996094 1431.324219 2672.84375 C 1439.5625 2672.84375 1448.046875 2672.101562 1456.40625 2671.730469 C 1464.765625 2671.359375 1473.167969 2670.949219 1481.488281 2670.207031 L 1506.527344 2668.269531 L 1531.527344 2665.675781 L 1543.882812 2664.398438 L 1556.234375 2662.75 L 1580.945312 2659.457031 C 1588.523438 2658.261719 1596.96875 2656.78125 1605.039062 2655.339844 C 1613.113281 2653.898438 1621.511719 2652.289062 1629.75 2650.519531 C 1695.414062 2636.933594 1760.101562 2619.691406 1823.816406 2598.800781 C 1887.53125 2577.910156 1949.871094 2553.496094 2010.828125 2525.566406 C 2025.902344 2518.523438 2041.015625 2511.644531 2055.679688 2503.859375 C 2070.339844 2496.078125 2085.414062 2489.074219 2099.539062 2480.675781 C 2113.664062 2472.273438 2128.367188 2464.53125 2142.371094 2455.964844 L 2184.050781 2429.441406 C 2238.921875 2392.753906 2291.085938 2352.558594 2340.550781 2308.851562 C 2389.921875 2264.789062 2436.515625 2217.960938 2480.328125 2168.371094 C 2524.367188 2118.746094 2565.660156 2066.933594 2604.210938 2012.9375 C 2681.554688 1904.386719 2749.714844 1790.34375 2808.691406 1670.816406 C 2838.34375 1611.207031 2865.800781 1550.625 2891.058594 1489.066406 C 2910.621094 1441.128906 2929.238281 1392.652344 2945.710938 1344.011719 Z M 2945.710938 1344.011719 " fill-opacity="1" fill-rule="nonzero"/></g><g clip-path="url(#e6dd94dc5d)"><path fill="#76d3f6" d="M 427.292969 2865.710938 C 343.117188 2846.007812 257.851562 2834.105469 171.5 2830.003906 C 85.78125 2825.75 0.351562 2829.015625 -84.792969 2839.804688 C -169.292969 2850.503906 -252.113281 2868.800781 -333.257812 2894.707031 C -373.453125 2907.84375 -413.152344 2922.257812 -451.90625 2938.898438 C -461.667969 2942.769531 -471.183594 2947.464844 -480.738281 2951.707031 C -490.292969 2955.945312 -499.96875 2960.230469 -509.359375 2965.050781 L -537.652344 2978.96875 C -547.003906 2983.746094 -556.1875 2988.855469 -565.492188 2993.753906 C -639.335938 3033.542969 -708.867188 3079.808594 -774.09375 3132.546875 C -806.378906 3158.863281 -837.390625 3186.625 -867.292969 3215.496094 C -897.191406 3244.363281 -925.238281 3274.925781 -952.214844 3306.347656 C -979.191406 3337.773438 -1004.765625 3370.515625 -1028.570312 3404.203125 C -1052.375 3437.890625 -1075.230469 3472.488281 -1096.195312 3507.949219 C -1117.15625 3543.40625 -1136.597656 3579.566406 -1154.179688 3616.632812 C -1160.605469 3630.035156 -1166.785156 3643.5 -1172.714844 3657.035156 L -1172.714844 3369.527344 C -1160.222656 3353.410156 -1147.425781 3337.550781 -1134.332031 3321.957031 C -1105.28125 3287.308594 -1074.765625 3254.085938 -1042.777344 3222.289062 C -1010.777344 3190.535156 -977.542969 3160.058594 -942.988281 3131.269531 C -908.433594 3102.484375 -872.523438 3075.464844 -835.582031 3050.011719 C -761.660156 2999.320312 -683.683594 2955.914062 -601.652344 2919.789062 C -591.441406 2915.339844 -581.308594 2910.769531 -571.054688 2906.527344 L -540.042969 2894.171875 C -529.789062 2890.050781 -519.449219 2886.304688 -508.824219 2882.515625 C -498.199219 2878.726562 -488.027344 2874.773438 -477.441406 2871.476562 C -435.394531 2857.269531 -392.644531 2845.488281 -349.769531 2835.152344 C -263.765625 2815.027344 -176.648438 2802.90625 -88.414062 2798.785156 C -0.871094 2794.648438 86.355469 2798.214844 173.269531 2809.492188 C 259.65625 2820.488281 344.332031 2839.226562 427.292969 2865.710938 Z M 427.292969 2865.710938 " fill-opacity="1" fill-rule="nonzero"/></g><g clip-path="url(#0895ff2b92)"><g transform="matrix(1, 0, 0, 1, 0, 3694)"><g clip-path="url(#33db21c593)"><g clip-path="url(#b9d5dc2707)"><path fill="#0a588e" d="M -695.042969 575.40625 L -695.042969 601.269531 L -670.046875 650.363281 L -660.777344 668.566406 L -656.125 677.667969 L -651.140625 686.5625 L -631.003906 722.148438 C -617.410156 745.785156 -604.683594 769.921875 -589.816406 792.738281 L -568.03125 827.457031 L -557.078125 844.710938 C -553.410156 850.476562 -549.953125 856.367188 -545.914062 861.886719 L -499.128906 929.265625 C -466.9375 973.785156 -432.714844 1016.679688 -396.460938 1057.957031 C -360.207031 1099.234375 -322.082031 1138.707031 -282.089844 1176.375 C -272.371094 1186.175781 -261.496094 1194.90625 -251.367188 1204.050781 L -220.148438 1231.234375 C -209.5625 1240.128906 -198.527344 1248.449219 -187.695312 1257.054688 L -171.222656 1269.863281 C -165.785156 1273.984375 -160.429688 1278.511719 -154.746094 1282.425781 L -120.894531 1306.476562 C -115.167969 1310.597656 -109.652344 1314.714844 -103.84375 1318.378906 L -86.339844 1329.582031 C -74.644531 1337.035156 -63.03125 1344.613281 -51.25 1351.988281 L -15.503906 1372.992188 C 33.082031 1400.460938 83.199219 1424.789062 134.839844 1445.964844 C 186.480469 1467.140625 239.246094 1485.003906 293.132812 1499.550781 C 306.640625 1503.011719 320.105469 1506.800781 333.699219 1510.011719 L 374.59375 1519.238281 L 415.777344 1527.105469 C 429.492188 1529.738281 443.328125 1531.59375 456.960938 1533.859375 C 512.207031 1542.023438 567.722656 1547.390625 623.511719 1549.960938 C 734.914062 1555.441406 846.152344 1549.960938 956.15625 1538.757812 C 1066.160156 1527.558594 1174.925781 1510.175781 1282.707031 1490.945312 C 1498.101562 1452.148438 1709.785156 1404.785156 1920.816406 1374.554688 C 1973.570312 1367.019531 2026.207031 1360.554688 2078.757812 1355.488281 C 2131.308594 1350.421875 2183.734375 1347.25 2235.914062 1345.5625 C 2288.097656 1343.875 2340.070312 1344.242188 2391.632812 1346.960938 C 2443.195312 1349.679688 2494.304688 1354.789062 2544.796875 1362.40625 C 2582.347656 1367.835938 2619.589844 1374.894531 2656.523438 1383.582031 C 2693.457031 1392.269531 2729.941406 1402.554688 2765.972656 1414.4375 C 2802.007812 1426.320312 2837.453125 1439.75 2872.308594 1454.734375 C 2907.167969 1469.71875 2941.304688 1486.195312 2974.71875 1504.164062 C 2985.757812 1510.261719 2996.878906 1516.109375 3007.667969 1522.328125 L 3040.367188 1541.847656 C 3051.28125 1548.109375 3061.742188 1555.152344 3072.328125 1562.03125 L 3088.140625 1572.324219 C 3093.414062 1575.703125 3098.726562 1579.121094 3103.792969 1582.867188 L 3134.636719 1604.65625 C 3139.828125 1608.199219 3144.769531 1612.109375 3149.792969 1615.941406 L 3164.785156 1627.429688 L 3179.816406 1638.878906 C 3184.761719 1642.792969 3189.578125 1646.871094 3194.4375 1650.863281 C 3204.117188 1659.101562 3214 1666.679688 3223.515625 1674.957031 C 3261.816406 1707.90625 3298.222656 1742.789062 3333.1875 1779.28125 C 3364.734375 1812.226562 3394.800781 1846.546875 3423.382812 1882.242188 L 3423.382812 1548.972656 C 3404.160156 1532.5 3384.683594 1516.589844 3364.941406 1501.242188 C 3353.492188 1492.222656 3341.671875 1483.738281 3330.058594 1475.003906 C 3324.210938 1470.886719 3318.445312 1466.273438 3312.511719 1462.03125 L 3294.558594 1449.675781 L 3276.640625 1437.320312 C 3270.628906 1433.203125 3264.699219 1429.085938 3258.519531 1424.964844 L 3221.703125 1401.492188 C 3215.605469 1397.371094 3209.347656 1393.832031 3203.046875 1390.164062 L 3184.183594 1379.128906 C 3171.621094 1371.796875 3159.183594 1364.300781 3146.210938 1357.628906 L 3107.703125 1337.035156 C 3094.730469 1330.445312 3081.550781 1324.226562 3068.496094 1317.84375 C 3029.203125 1299.074219 2989.167969 1282.050781 2948.390625 1266.769531 C 2907.613281 1251.488281 2866.25 1238.003906 2824.300781 1226.324219 C 2782.347656 1214.644531 2739.96875 1204.808594 2697.164062 1196.820312 C 2654.355469 1188.828125 2611.28125 1182.714844 2567.941406 1178.476562 C 2510.738281 1172.625 2453.492188 1169.742188 2396.535156 1169.371094 C 2339.578125 1169.003906 2282.949219 1171.554688 2226.773438 1175.878906 C 2170.597656 1180.203125 2114.835938 1186.503906 2059.605469 1194.414062 C 2004.378906 1202.320312 1949.644531 1211.792969 1895.320312 1222.214844 C 1678.035156 1264.015625 1467.996094 1321.714844 1258.035156 1369.859375 C 1153.101562 1393.746094 1047.996094 1415.742188 942.773438 1431.636719 C 837.546875 1447.535156 731.496094 1457.667969 625.652344 1457.503906 C 572.835938 1457.5625 520.148438 1454.980469 467.585938 1449.757812 C 454.53125 1448.234375 441.351562 1447.082031 428.339844 1445.230469 L 389.171875 1439.667969 L 350.253906 1432.792969 C 337.28125 1430.402344 324.472656 1427.4375 311.539062 1424.761719 C 259.890625 1413.320312 209.15625 1398.695312 159.339844 1380.886719 C 109.527344 1363.082031 61.019531 1342.230469 13.820312 1318.339844 L -21.558594 1300.09375 L -56.070312 1280.285156 L -73.328125 1270.359375 C -79.09375 1267.023438 -84.570312 1263.273438 -90.171875 1259.734375 L -123.777344 1238.191406 C -129.460938 1234.734375 -134.816406 1230.78125 -140.25 1226.910156 L -156.476562 1215.335938 C -167.269531 1207.511719 -178.347656 1200.015625 -188.929688 1191.941406 L -220.3125 1167.230469 C -230.734375 1158.996094 -241.480469 1150.757812 -251.324219 1141.863281 C -292.105469 1106.933594 -331.140625 1070.152344 -368.433594 1031.523438 C -405.726562 992.898438 -441.109375 952.589844 -474.585938 910.609375 L -523.800781 846.484375 C -527.917969 841.210938 -531.707031 835.570312 -535.578125 830.007812 L -547.152344 813.535156 L -570.253906 780.300781 C -586.152344 758.429688 -599.867188 734.996094 -614.445312 712.34375 L -636.066406 678.039062 L -641.421875 669.429688 L -646.488281 660.617188 L -656.535156 642.988281 Z M -695.042969 575.40625 " fill-opacity="1" fill-rule="nonzero"/></g><g clip-path="url(#8e01725860)"><path fill="#76d3f6" d="M -695.042969 1.207031 L -695.042969 414.660156 C -626.878906 533.992188 -549.824219 647.28125 -463.875 754.519531 C -419.511719 809.746094 -372.371094 862.488281 -322.449219 912.75 C -272.558594 963.320312 -219.828125 1010.738281 -164.261719 1055.003906 C -108.316406 1099.113281 -49.65625 1139.253906 11.71875 1175.425781 L 58.296875 1201.496094 C 74.113281 1209.734375 90.175781 1217.433594 106.070312 1225.425781 C 121.96875 1233.414062 138.238281 1240.335938 154.382812 1247.582031 C 170.523438 1254.832031 186.917969 1261.378906 203.265625 1267.929688 C 268.667969 1293.808594 335.359375 1315.773438 403.339844 1333.824219 C 420.226562 1338.4375 437.277344 1342.347656 454.242188 1346.671875 C 471.210938 1350.996094 488.304688 1354.582031 505.4375 1357.957031 C 539.617188 1365.207031 574.046875 1371.21875 608.726562 1376.410156 C 626.230469 1378.960938 643.15625 1381.269531 661.566406 1383.082031 L 687.839844 1385.058594 L 700.9375 1386.046875 L 714.074219 1386.664062 L 740.351562 1387.898438 L 766.625 1388.433594 C 775.355469 1388.722656 784.128906 1388.433594 792.902344 1388.433594 C 801.675781 1388.433594 810.40625 1388.433594 819.136719 1388.105469 C 854.144531 1387.324219 889.148438 1384.976562 923.703125 1381.804688 C 958.257812 1378.632812 992.808594 1373.9375 1027.035156 1368.832031 C 1095.441406 1358.328125 1162.941406 1345.148438 1230.195312 1331.765625 C 1263.886719 1325.132812 1297.65625 1318.132812 1331.222656 1310.636719 C 1364.785156 1303.140625 1398.226562 1294.945312 1431.546875 1286.417969 C 1564.632812 1252.09375 1695.242188 1210.074219 1823.375 1160.351562 C 1693.078125 1202.640625 1560.753906 1237.140625 1426.398438 1263.851562 C 1392.875 1270.386719 1359.296875 1276.507812 1325.660156 1282.21875 C 1291.972656 1287.777344 1258.324219 1292.804688 1224.429688 1297.5 C 1156.601562 1306.890625 1088.894531 1316.195312 1021.351562 1322.664062 C 987.582031 1325.75 953.851562 1328.304688 920.160156 1329.621094 C 886.472656 1330.941406 852.867188 1331.1875 819.34375 1330.035156 C 811.105469 1330.035156 802.621094 1329.292969 794.261719 1328.921875 C 785.902344 1328.550781 777.5 1328.140625 769.179688 1327.398438 L 744.140625 1325.464844 L 719.140625 1322.867188 L 706.785156 1321.589844 L 694.429688 1319.945312 L 669.71875 1316.648438 C 662.140625 1315.453125 653.699219 1313.972656 645.628906 1312.53125 C 637.554688 1311.089844 629.152344 1309.484375 620.917969 1307.710938 C 555.253906 1294.125 490.566406 1276.886719 426.851562 1255.992188 C 363.136719 1235.101562 300.796875 1210.6875 239.839844 1182.757812 C 224.765625 1175.714844 209.652344 1168.835938 194.988281 1161.054688 C 180.328125 1153.269531 165.253906 1146.269531 151.128906 1137.867188 C 137 1129.464844 122.296875 1121.722656 108.296875 1113.15625 L 66.617188 1086.632812 C 11.746094 1049.945312 -40.421875 1009.75 -89.882812 966.042969 C -139.253906 921.980469 -185.847656 875.152344 -229.660156 825.5625 C -273.699219 775.9375 -314.992188 724.125 -353.542969 670.128906 C -430.886719 561.578125 -499.046875 447.539062 -558.023438 328.007812 C -587.675781 268.398438 -615.132812 207.816406 -640.390625 146.257812 C -659.953125 98.320312 -678.570312 49.84375 -695.042969 1.207031 Z M -695.042969 1.207031 " fill-opacity="1" fill-rule="nonzero"/></g><g clip-path="url(#e4682d9b5d)"><path fill="#76d3f6" d="M 1823.375 1522.902344 C 1907.550781 1503.199219 1992.8125 1491.296875 2079.167969 1487.195312 C 2164.886719 1482.941406 2250.316406 1486.207031 2335.457031 1497 C 2419.960938 1507.695312 2502.78125 1525.996094 2583.921875 1551.898438 C 2624.117188 1565.035156 2663.820312 1579.449219 2702.574219 1596.089844 C 2712.335938 1599.960938 2721.847656 1604.65625 2731.402344 1608.898438 C 2740.957031 1613.140625 2750.636719 1617.421875 2760.027344 1622.242188 L 2788.320312 1636.160156 C 2797.667969 1640.9375 2806.851562 1646.046875 2816.160156 1650.949219 C 2890.003906 1690.734375 2959.535156 1737 3024.757812 1789.742188 C 3057.046875 1816.058594 3088.058594 1843.816406 3117.957031 1872.6875 C 3147.859375 1901.558594 3175.90625 1932.117188 3202.878906 1963.539062 C 3229.855469 1994.964844 3255.433594 2027.707031 3279.238281 2061.394531 C 3303.039062 2095.085938 3325.898438 2129.679688 3346.859375 2165.140625 C 3367.824219 2200.601562 3387.261719 2236.761719 3404.847656 2273.828125 C 3411.273438 2287.226562 3417.449219 2300.695312 3423.382812 2314.230469 L 3423.382812 2026.71875 C 3410.890625 2010.601562 3398.09375 1994.746094 3384.996094 1979.148438 C 3355.949219 1944.5 3325.429688 1911.277344 3293.445312 1879.480469 C 3261.445312 1847.730469 3228.210938 1817.25 3193.65625 1788.464844 C 3159.101562 1759.675781 3123.1875 1732.660156 3086.246094 1707.207031 C 3012.328125 1656.511719 2934.351562 1613.105469 2852.320312 1576.980469 C 2842.105469 1572.53125 2831.976562 1567.960938 2821.71875 1563.71875 L 2790.707031 1551.363281 C 2780.453125 1547.246094 2770.117188 1543.496094 2759.492188 1539.707031 C 2748.867188 1535.917969 2738.691406 1531.964844 2728.109375 1528.667969 C 2686.058594 1514.460938 2643.308594 1502.683594 2600.4375 1492.34375 C 2514.433594 1472.21875 2427.3125 1460.097656 2339.082031 1455.976562 C 2251.539062 1451.839844 2164.308594 1455.410156 2077.398438 1466.6875 C 1991.007812 1477.679688 1906.332031 1496.417969 1823.375 1522.902344 Z M 1823.375 1522.902344 " fill-opacity="1" fill-rule="nonzero"/></g></g></g></g></g></g></g></svg>
